<?xml version="1.0" encoding="UTF-8" standalone="no"?><!DOCTYPE svg PUBLIC "-//W3C//DTD SVG 1.1//EN" "http://www.w3.org/Graphics/SVG/1.1/DTD/svg11.dtd"><svg width="100%" height="100%" viewBox="0 0 2650 1875" version="1.1" xmlns="http://www.w3.org/2000/svg" xmlns:xlink="http://www.w3.org/1999/xlink" xml:space="preserve" xmlns:serif="http://www.serif.com/" style="fill-rule:evenodd;clip-rule:evenodd;stroke-linejoin:round;stroke-miterlimit:2;"><g><rect x="0" y="0" width="2645.95" height="1875" style="fill:none;"/><g><rect x="1048.81" y="446.125" width="546.875" height="982.75" style="fill:#ff5f00;"/><path d="M1083.54,937.5c-0.175,-191.642 87.954,-373.054 238.712,-491.375c-110.112,-86.55 -246.179,-133.625 -386.233,-133.625c-342.867,0 -625,282.133 -625,625c-0,342.867 282.133,625 625,625c140.054,0 276.121,-47.075 386.233,-133.625c-150.754,-118.321 -238.887,-299.733 -238.712,-491.375Z" style="fill:#eb001b;fill-rule:nonzero;"/><path d="M2333.45,937.475l0,0.05c0,342.85 -282.125,624.975 -624.975,624.975c-140.054,0 -276.117,-47.075 -386.225,-133.625c150.617,-118.433 238.713,-299.771 238.713,-491.375c-0,-191.604 -88.096,-372.942 -238.713,-491.375c110.108,-86.55 246.171,-133.625 386.225,-133.625c342.85,0 624.975,282.125 624.975,624.975Z" style="fill:#f79e1b;fill-rule:nonzero;"/></g></g></svg>